<svg width="72" height="52" viewBox="0 0 72 52" fill="none" xmlns="http://www.w3.org/2000/svg">
<path d="M8.84375 51.1406C7.84375 51.1406 6.78125 50.9688 5.65625 50.625C4.53125 50.2969 3.57031 49.7422 2.77344 48.9609C1.99219 48.1797 1.60156 47.1172 1.60156 45.7734C1.60156 45.2422 1.71875 44.7969 1.95312 44.4375C2.1875 44.0781 2.59375 43.8984 3.17188 43.8984L12.1953 44.5312C12.3828 44.3125 12.6406 43.8125 12.9688 43.0312C13.3125 42.2656 13.6875 41.3594 14.0938 40.3125C11.6562 40.2031 9.3984 39.5547 7.32031 38.3672C5.25781 37.1797 3.59375 35.4609 2.32812 33.2109C1.0625 30.9453 0.429688 28.1484 0.429688 24.8203C0.429688 22.1328 0.914058 19.5156 1.88281 16.9688C2.85156 14.4219 4.25 12.1328 6.07812 10.1016C7.92188 8.05468 10.1562 6.42968 12.7812 5.22658C15.4062 4.02338 18.3672 3.42188 21.6641 3.42188C22.1641 3.42188 22.6875 3.45308 23.2344 3.51558C23.7812 3.56248 24.3281 3.63278 24.875 3.72658L24.7812 6.11718C24.375 6.03908 23.9766 5.99218 23.5859 5.97658C23.1953 5.94528 22.8203 5.92968 22.4609 5.92968C19.8984 5.92968 17.5859 6.40618 15.5234 7.35938C13.4766 8.29688 11.7266 9.57028 10.2734 11.1797C8.82031 12.7891 7.70312 14.6016 6.92188 16.6172C6.15625 18.6328 5.77344 20.7109 5.77344 22.8516C5.77344 25.2266 6.24219 27.2812 7.17969 29.0156C8.13281 30.75 9.3828 32.1406 10.9297 33.1875C12.4922 34.2188 14.1875 34.8594 16.0156 35.1094C16.3281 34.25 16.6016 33.4844 16.8359 32.8125C17.0859 32.125 17.2656 31.6406 17.375 31.3594C17.5781 30.8281 18.1328 30.5234 19.0391 30.4453C19.9453 30.3516 20.8984 30.3047 21.8984 30.3047L20.1172 35.0859C22.6328 34.7109 24.7812 33.8047 26.5625 32.3672C28.3594 30.9297 29.7656 29.2656 30.7812 27.375H30.4766C28.3516 27.375 26.3516 27.0078 24.4766 26.2734C22.6172 25.5234 21.1016 24.4062 19.9297 22.9219C18.7734 21.4219 18.1953 19.5469 18.1953 17.2969C18.1953 16.0156 18.4844 14.8203 19.0625 13.7109C19.6562 12.5859 20.5703 11.6797 21.8047 10.9922C23.0547 10.3047 24.6562 9.96087 26.6094 9.96087C28 9.96087 29.3516 10.3594 30.6641 11.1562C31.9922 11.9375 33.0859 13.1484 33.9453 14.7891C34.8047 16.4141 35.2344 18.4844 35.2344 21C35.2344 22.0781 35.1406 23.1016 34.9531 24.0703C37 23.5 39.5 22 42.5 21.5L46.5 22.5C53.4844 22.2578 39.2656 25.4375 38 26C36.75 26.5469 35.5078 26.7812 34.1797 27.0469C33.3516 29.3594 32.1094 31.4141 30.4531 33.2109C28.8125 34.9922 26.9375 36.4688 24.8281 37.6406C22.7188 38.7969 20.5391 39.5859 18.2891 40.0078L16.6719 44.3672C17.2969 44.2734 18.0703 44.1484 18.9922 43.9922C19.9297 43.8359 20.8359 43.6406 21.7109 43.4062C22.5859 43.1719 23.2578 42.8906 23.7266 42.5625L23.9609 45.375C23.6016 45.5625 23.0703 45.75 22.3672 45.9375C21.6641 46.1406 20.8984 46.3281 20.0703 46.5C19.2578 46.6719 18.4922 46.8125 17.7734 46.9219C17.0547 47.0469 16.4922 47.125 16.0859 47.1562C15.6484 48.1875 14.8203 49.1094 13.6016 49.9219C12.3828 50.7344 10.7969 51.1406 8.84375 51.1406ZM32.0234 24.3047C32.4453 22.9609 32.6562 21.6172 32.6562 20.2734C32.6562 18.8672 32.4141 17.5859 31.9297 16.4297C31.4453 15.2578 30.7031 14.3281 29.7031 13.6406C28.7188 12.9531 27.4766 12.6094 25.9766 12.6094C24.6484 12.6094 23.6875 12.8906 23.0938 13.4531C22.5156 14 22.2266 14.7109 22.2266 15.5859C22.2266 17.2422 22.6484 18.7266 23.4922 20.0391C24.3359 21.3359 25.4922 22.3672 26.9609 23.1328C28.4453 23.8828 30.1328 24.2734 32.0234 24.3047ZM9.1719 48.9375C9.875 48.9375 10.3984 48.6953 10.7422 48.2109C11.1016 47.7422 11.3828 47.2812 11.5859 46.8281H8.89062C8.29688 46.8281 7.75781 46.7891 7.27344 46.7109C6.80469 46.6484 6.39844 46.6094 6.05469 46.5938C5.64844 46.5938 5.36719 46.6094 5.21094 46.6406C5.07031 46.6875 5 46.8438 5 47.1094C5 47.4531 5.39844 47.8438 6.19531 48.2812C6.99219 48.7188 7.98438 48.9375 9.1719 48.9375Z" fill="white"/>
<path d="M64.9231 0.8168C65.0313 0.8007 65.302 0.815699 65.7354 0.861699C66.151 0.894699 66.5696 1.0535 66.9911 1.3383C67.4104 1.6076 67.6706 2.0823 67.7718 2.7623C67.8455 3.2569 67.6835 3.7075 67.2859 4.1142C66.8752 4.5387 66.41 4.916 65.8905 5.2461C65.3709 5.5762 64.9527 5.8438 64.6357 6.049L59.1048 9.6447C58.8733 10.1057 58.6473 11.1346 58.4269 12.7313C58.191 14.3304 57.9487 16.1515 57.7 18.1948C57.9581 18.1248 58.3759 17.9599 58.9534 17.7002C59.5176 17.4582 60.124 17.2336 60.7724 17.0265C61.4054 16.8217 61.9684 16.73 62.4613 16.7514C62.9387 16.7751 63.2131 17.0265 63.2844 17.5056C63.3695 18.0774 63.2934 18.4679 63.056 18.677C62.8185 18.8861 62.5676 19.0578 62.3033 19.1919C61.8186 19.4378 61.1607 19.7411 60.3298 20.1018C59.4857 20.4802 58.4716 20.8839 57.2875 21.313C56.9766 23.6814 56.6895 25.7857 56.4264 27.6257C56.1477 29.4681 55.7341 31.0936 55.1856 32.5022C54.6238 33.9286 53.766 35.17 52.6121 36.2264C53.5045 36.1726 54.3537 36.0935 55.1597 35.9894C55.9679 35.9006 56.7275 35.8033 57.4384 35.6975C61.4721 35.097 64.2819 34.1811 65.8679 32.9498C67.4562 31.7339 68.1353 30.3533 67.9052 28.8078C67.7787 27.9578 67.2704 27.1962 66.3803 26.5231C65.4771 25.8677 64.2511 25.3788 62.7024 25.0564C62.6242 24.531 62.6063 23.9333 62.6487 23.2635C62.6935 22.6092 62.7894 22.1921 62.9364 22.0122C65.5071 22.5142 67.4937 23.2848 68.8964 24.3239C70.2836 25.3654 71.0704 26.512 71.2568 27.7639C71.5283 29.5875 71.1637 31.2768 70.1629 32.8317C69.1491 34.4044 67.5715 35.7451 65.4301 36.8537C63.2756 37.9801 60.6143 38.7791 57.4461 39.2507L50.7001 40.255C49.031 40.5035 47.3453 40.7465 45.643 40.9841C43.9406 41.2218 42.3828 41.4221 40.9696 41.5851C39.5586 41.7635 38.4212 41.8697 37.5574 41.9035C36.6804 41.955 36.2316 41.9113 36.2109 41.7722C36.1833 41.5867 36.2944 41.3253 36.5443 40.988L38.4691 38.0001C38.7878 37.6999 39.1133 37.4461 39.4458 37.2386C39.7651 37.0489 40.1256 36.9242 40.5275 36.8643C41.9029 36.6596 43.4096 36.5933 45.0474 36.6654C46.6876 36.753 48.2695 36.7149 49.7933 36.5513C50.0427 34.6185 50.2853 32.4813 50.5212 30.1398C50.744 27.8161 51.046 25.441 51.4273 23.0147C50.527 23.2277 49.6155 23.4187 48.6928 23.5876C47.757 23.7743 46.7945 23.9413 45.8054 24.0886C44.9863 24.2105 41.5 25 42.5 24.5C41.6585 24.5779 41.6042 24.5718 40.7078 24.7052C40.136 24.7904 39.8121 24.5779 39.7362 24.0679C39.6718 23.6352 39.8323 23.1216 40.2177 22.5271C40.6031 21.9326 41.8663 21.5943 42.5 21.5C44.3236 21.2285 45.2986 20.9493 46.9322 20.6745C48.568 20.4152 50.1804 20.1041 51.7693 19.7411C52.0236 17.5233 52.443 15.5652 53.0275 13.8669C53.6119 12.1685 54.1764 10.6549 54.721 9.3258L51.7769 9.7641C51.5336 9.7213 51.0114 9.6095 50.2104 9.4286C49.3963 9.2654 48.4914 9.0763 47.4957 8.8612C46.4869 8.6638 45.5546 8.5025 44.6987 8.3771C43.8273 8.2541 43.2062 8.2202 42.8352 8.2754C42.3252 8.3513 41.706 8.6489 40.9777 9.168C40.7968 9.2266 40.4415 9.4927 39.9118 9.9665C39.3843 10.4558 38.7593 11.0859 38.0369 11.8569C37.3012 12.6457 36.5516 13.4998 35.788 14.4191C35.009 15.3407 34.2864 16.2698 33.6201 17.2062L33.2405 14.6562C34.917 12.6531 36.4201 10.8654 37.75 9.2931C39.0798 7.7208 40.4291 6.4378 41.7977 5.4442C43.1508 4.4529 44.7315 3.8227 46.5397 3.5535C46.6634 3.5351 46.8271 3.5739 47.031 3.6699C47.2171 3.7528 47.6411 3.895 48.303 4.0966C48.9471 4.2851 49.9937 4.5242 51.4428 4.814C52.8942 5.1193 54.9358 5.463 57.5677 5.8453C58.7117 4.6166 59.9538 3.5154 61.2938 2.5419C62.6315 1.5529 63.8412 0.9779 64.9231 0.8168Z" fill="white"/>
</svg>
