<svg width="135" height="32" viewBox="0 0 135 32" fill="none" xmlns="http://www.w3.org/2000/svg">
<path d="M49.52 27.06V22.8H52.36V27.06H49.52ZM50.94 23.26C49.82 23.26 48.8067 23.0733 47.9 22.7C47.0067 22.3133 46.24 21.7867 45.6 21.12C44.96 20.4533 44.4667 19.68 44.12 18.8C43.7733 17.92 43.6 16.98 43.6 15.98C43.6 14.98 43.7733 14.0467 44.12 13.18C44.4667 12.3 44.96 11.5267 45.6 10.86C46.24 10.1933 47.0067 9.67333 47.9 9.3C48.8067 8.92667 49.82 8.74 50.94 8.74C52.06 8.74 53.0667 8.92667 53.96 9.3C54.8667 9.67333 55.64 10.1933 56.28 10.86C56.92 11.5267 57.4133 12.3 57.76 13.18C58.1067 14.0467 58.28 14.98 58.28 15.98C58.28 16.98 58.1067 17.92 57.76 18.8C57.4133 19.68 56.92 20.4533 56.28 21.12C55.64 21.7867 54.8667 22.3133 53.96 22.7C53.0667 23.0733 52.06 23.26 50.94 23.26ZM50.94 20.72C51.58 20.72 52.1733 20.6067 52.72 20.38C53.2667 20.14 53.74 19.8067 54.14 19.38C54.5533 18.94 54.8667 18.4333 55.08 17.86C55.3067 17.2867 55.42 16.66 55.42 15.98C55.42 15.3 55.3067 14.6733 55.08 14.1C54.8667 13.5267 54.5533 13.0267 54.14 12.6C53.74 12.1733 53.2667 11.8467 52.72 11.62C52.1733 11.38 51.58 11.26 50.94 11.26C50.3 11.26 49.7067 11.38 49.16 11.62C48.6133 11.8467 48.1333 12.1733 47.72 12.6C47.32 13.0267 47.0067 13.5267 46.78 14.1C46.5667 14.6733 46.46 15.3 46.46 15.98C46.46 16.66 46.5667 17.2867 46.78 17.86C47.0067 18.4333 47.32 18.94 47.72 19.38C48.1333 19.8067 48.6133 20.14 49.16 20.38C49.7067 20.6067 50.3 20.72 50.94 20.72ZM65.1589 23.24C64.1189 23.24 63.2256 23.0333 62.4789 22.62C61.7322 22.2067 61.1589 21.6533 60.7589 20.96C60.3722 20.2667 60.1789 19.5 60.1789 18.66V12.8H62.9189V18.66C62.9189 19.0733 63.0189 19.4533 63.2189 19.8C63.4189 20.1333 63.6856 20.4 64.0189 20.6C64.3656 20.8 64.7456 20.9 65.1589 20.9C65.5722 20.9 65.9456 20.8 66.2789 20.6C66.6256 20.4 66.8989 20.1333 67.0989 19.8C67.2989 19.4533 67.3989 19.0733 67.3989 18.66V12.8H70.1389V18.66C70.1389 19.5 69.9389 20.2667 69.5389 20.96C69.1522 21.6533 68.5856 22.2067 67.8389 22.62C67.1056 23.0333 66.2122 23.24 65.1589 23.24ZM72.7375 23V12.8H75.4975V23H72.7375ZM74.1175 11.58C73.6508 11.58 73.2442 11.4133 72.8975 11.08C72.5642 10.7333 72.3975 10.3267 72.3975 9.86C72.3975 9.39333 72.5642 8.99333 72.8975 8.66C73.2442 8.31333 73.6508 8.14 74.1175 8.14C74.5842 8.14 74.9842 8.31333 75.3175 8.66C75.6642 8.99333 75.8375 9.39333 75.8375 9.86C75.8375 10.3267 75.6642 10.7333 75.3175 11.08C74.9842 11.4133 74.5842 11.58 74.1175 11.58ZM82.9695 23C81.9162 23 80.9762 22.7733 80.1495 22.32C79.3229 21.8667 78.6695 21.26 78.1895 20.5C77.7095 19.7267 77.4695 18.86 77.4695 17.9C77.4695 16.94 77.7095 16.08 78.1895 15.32C78.6695 14.5467 79.3229 13.9333 80.1495 13.48C80.9762 13.0267 81.9162 12.8 82.9695 12.8H84.2495V15.14H82.9695C82.4095 15.14 81.9229 15.26 81.5095 15.5C81.1095 15.74 80.7962 16.0733 80.5695 16.5C80.3562 16.9133 80.2495 17.38 80.2495 17.9C80.2495 18.42 80.3562 18.8933 80.5695 19.32C80.7962 19.7333 81.1095 20.06 81.5095 20.3C81.9229 20.54 82.4095 20.66 82.9695 20.66H84.2495V23H82.9695ZM86.1555 23V8.4H88.8955V16.7H90.5155L92.9755 12.8H95.9755L93.1755 17.12C94.0421 17.48 94.7155 18.0333 95.1955 18.78C95.6755 19.5267 95.9155 20.36 95.9155 21.28V23H93.1755V21.28C93.1755 20.8667 93.0688 20.4933 92.8555 20.16C92.6555 19.8133 92.3888 19.54 92.0555 19.34C91.7221 19.14 91.3488 19.04 90.9355 19.04H88.8955V23H86.1555ZM101.789 23C101.015 23 100.309 22.8133 99.6686 22.44C99.0419 22.0667 98.5419 21.5667 98.1686 20.94C97.7953 20.3 97.6086 19.5933 97.6086 18.82C97.6086 18.26 97.7286 17.7333 97.9686 17.24C98.2086 16.7467 98.5353 16.3133 98.9486 15.94C98.5353 15.5667 98.2086 15.1333 97.9686 14.64C97.7286 14.1467 97.6086 13.6267 97.6086 13.08C97.6086 12.32 97.7886 11.6333 98.1486 11.02C98.5219 10.4067 99.0153 9.92 99.6286 9.56C100.255 9.18667 100.942 9 101.689 9H107.449V11.52H102.009C101.729 11.52 101.469 11.5933 101.229 11.74C101.002 11.8733 100.815 12.06 100.669 12.3C100.535 12.5267 100.469 12.7867 100.469 13.08C100.469 13.36 100.535 13.62 100.669 13.86C100.815 14.0867 101.002 14.2733 101.229 14.42C101.469 14.5533 101.729 14.62 102.009 14.62H106.769V17.14H102.129C101.822 17.14 101.542 17.22 101.289 17.38C101.035 17.5267 100.835 17.7267 100.689 17.98C100.542 18.2333 100.469 18.5133 100.469 18.82C100.469 19.1267 100.542 19.4067 100.689 19.66C100.835 19.9133 101.035 20.1133 101.289 20.26C101.542 20.4067 101.822 20.48 102.129 20.48H107.449V23H101.789ZM114.334 23.24C113.481 23.24 112.714 23.1067 112.034 22.84C111.367 22.56 110.807 22.1733 110.354 21.68C109.901 21.1733 109.554 20.5867 109.314 19.92C109.074 19.24 108.954 18.5 108.954 17.7C108.954 16.6867 109.154 15.8 109.554 15.04C109.967 14.2667 110.541 13.66 111.274 13.22C112.021 12.78 112.887 12.56 113.874 12.56C114.301 12.56 114.707 12.62 115.094 12.74C115.494 12.86 115.854 13.0333 116.174 13.26C116.494 13.4867 116.754 13.7533 116.954 14.06H116.974V8.4H119.714V17.7C119.714 18.82 119.494 19.8 119.054 20.64C118.614 21.4667 117.994 22.1067 117.194 22.56C116.394 23.0133 115.441 23.24 114.334 23.24ZM114.334 20.9C114.881 20.9 115.347 20.7667 115.734 20.5C116.121 20.2333 116.414 19.8733 116.614 19.42C116.827 18.9667 116.934 18.46 116.934 17.9C116.934 17.34 116.827 16.8333 116.614 16.38C116.414 15.9267 116.121 15.5667 115.734 15.3C115.347 15.0333 114.881 14.9 114.334 14.9C113.801 14.9 113.334 15.0333 112.934 15.3C112.547 15.5667 112.247 15.9267 112.034 16.38C111.834 16.8333 111.734 17.34 111.734 17.9C111.734 18.46 111.834 18.9667 112.034 19.42C112.247 19.8733 112.547 20.2333 112.934 20.5C113.334 20.7667 113.801 20.9 114.334 20.9ZM122.21 23V12.8H124.97V23H122.21ZM123.59 11.58C123.123 11.58 122.717 11.4133 122.37 11.08C122.037 10.7333 121.87 10.3267 121.87 9.86C121.87 9.39333 122.037 8.99333 122.37 8.66C122.717 8.31333 123.123 8.14 123.59 8.14C124.057 8.14 124.457 8.31333 124.79 8.66C125.137 8.99333 125.31 9.39333 125.31 9.86C125.31 10.3267 125.137 10.7333 124.79 11.08C124.457 11.4133 124.057 11.58 123.59 11.58ZM131.082 23C130.176 23 129.462 22.74 128.942 22.22C128.436 21.7 128.182 20.9933 128.182 20.1V10.24H130.922V20.02C130.922 20.1933 130.982 20.3467 131.102 20.48C131.236 20.6 131.389 20.66 131.562 20.66H133.782V23H131.082ZM126.442 15.14V12.8H133.782V15.14H126.442Z" fill="#1E1E1E"/>
<g clip-path="url(#clip0_161_50)">
<path d="M4.54472 29.5539C4.03083 29.5539 3.48482 29.4647 2.9067 29.2862C2.32857 29.1158 1.83476 28.8278 1.42525 28.4221C1.02378 28.0165 0.823037 27.4648 0.823037 26.7671C0.823037 26.4913 0.88326 26.26 1.0037 26.0734C1.12415 25.8868 1.33291 25.7935 1.63001 25.7935L6.26704 26.1221C6.3634 26.0085 6.49588 25.7489 6.66454 25.3432C6.84116 24.9457 7.03387 24.4752 7.24266 23.9316C5.99 23.8748 4.82975 23.5381 3.76184 22.9215C2.70194 22.305 1.8468 21.4125 1.19641 20.2442C0.54602 19.0679 0.220825 17.6156 0.220825 15.8876C0.220825 14.4921 0.469738 13.1332 0.967568 11.8108C1.4654 10.4884 2.18404 9.29983 3.12349 8.24517C4.07098 7.18235 5.21917 6.3386 6.56813 5.71391C7.91709 5.08917 9.43871 4.77686 11.133 4.77686C11.3899 4.77686 11.6589 4.79306 11.9399 4.82551C12.2209 4.84986 12.502 4.88636 12.783 4.93507L12.7348 6.17634C12.5261 6.13579 12.3213 6.11143 12.1205 6.10333C11.9198 6.08708 11.7271 6.07898 11.5424 6.07898C10.2256 6.07898 9.03721 6.3264 7.97732 6.82133C6.92549 7.30811 6.02618 7.96929 5.2794 8.80495C4.53267 9.6406 3.95856 10.5817 3.55709 11.6283C3.16364 12.6748 2.96692 13.7538 2.96692 14.8654C2.96692 16.0985 3.20781 17.1653 3.68958 18.0659C4.17937 18.9665 4.82173 19.6885 5.61666 20.2321C6.41962 20.7676 7.29081 21.1002 8.23025 21.23C8.39084 20.7838 8.53139 20.3862 8.6518 20.0374C8.78027 19.6804 8.87261 19.4289 8.92883 19.2829C9.0332 19.007 9.31826 18.8488 9.784 18.8082C10.2497 18.7596 10.7395 18.7352 11.2534 18.7352L10.338 21.2178C11.6308 21.0231 12.7348 20.5525 13.6502 19.8062C14.5736 19.0598 15.2962 18.1957 15.8181 17.2141H15.6616C14.5696 17.2141 13.5418 17.0234 12.5783 16.6421C11.6227 16.2526 10.8439 15.6726 10.2417 14.9019C9.64746 14.123 9.35038 13.1495 9.35038 11.9812C9.35038 11.3159 9.49894 10.6953 9.79602 10.1192C10.1011 9.5351 10.5709 9.06457 11.2052 8.7076C11.8476 8.35063 12.6706 8.1721 13.6743 8.1721C14.3889 8.1721 15.0835 8.37903 15.758 8.79275C16.4405 9.19843 17.0025 9.82716 17.4441 10.6791C17.8858 11.5228 18.1066 12.5978 18.1066 13.904C18.1066 14.4637 18.0584 14.9952 17.962 15.4981C19.0139 15.202 20.2986 14.4232 21.8403 14.1636L23.8958 14.6828C27.4851 14.557 20.1782 16.208 19.5278 16.5001C18.8854 16.7841 18.2471 16.9057 17.5646 17.0437C17.139 18.2444 16.5007 19.3113 15.6495 20.2442C14.8064 21.1691 13.8429 21.9358 12.7589 22.5443C11.675 23.1447 10.5548 23.5543 9.39858 23.7734L8.56752 26.0369C8.8887 25.9882 9.28614 25.9233 9.75989 25.8422C10.2417 25.7611 10.7074 25.6597 11.157 25.5379C11.6067 25.4163 11.9519 25.2702 12.1929 25.0999L12.3133 26.5602C12.1286 26.6576 11.8556 26.7549 11.4943 26.8523C11.133 26.9577 10.7395 27.0551 10.3139 27.1443C9.89638 27.2336 9.50295 27.3066 9.13357 27.3634C8.76423 27.4283 8.47517 27.4689 8.26638 27.4851C8.04155 28.0205 7.616 28.4992 6.98972 28.9211C6.3634 29.343 5.54842 29.5539 4.54472 29.5539ZM16.4565 15.6199C16.6733 14.9221 16.7817 14.2244 16.7817 13.5267C16.7817 12.7965 16.6573 12.1313 16.4083 11.5309C16.1594 10.9224 15.778 10.4397 15.2641 10.0827C14.7583 9.72576 14.1199 9.5473 13.3491 9.5473C12.6666 9.5473 12.1728 9.69331 11.8677 9.98537C11.5705 10.2693 11.422 10.6385 11.422 11.0928C11.422 11.9528 11.6388 12.7235 12.0724 13.405C12.506 14.0784 13.1002 14.6138 13.8549 15.0114C14.6177 15.4008 15.4849 15.6036 16.4565 15.6199ZM4.71335 28.41C5.07467 28.41 5.34364 28.2842 5.52031 28.0327C5.705 27.7893 5.84951 27.55 5.95388 27.3147H4.5688C4.26369 27.3147 3.98667 27.2945 3.73775 27.2538C3.49687 27.2214 3.2881 27.2011 3.11145 27.193C2.90268 27.193 2.75815 27.2011 2.67786 27.2173C2.60559 27.2417 2.56946 27.3229 2.56946 27.4608C2.56946 27.6392 2.77421 27.8421 3.18371 28.0692C3.59322 28.2964 4.1031 28.41 4.71335 28.41Z" fill="#1E1E1E"/>
<path d="M33.3632 3.42415C33.4188 3.41579 33.558 3.42357 33.7807 3.44746C33.9942 3.46459 34.2094 3.54705 34.426 3.69492C34.6414 3.83475 34.7752 4.08123 34.8272 4.43431C34.865 4.69112 34.7818 4.92509 34.5775 5.13626C34.3664 5.35667 34.1273 5.55258 33.8604 5.72397C33.5934 5.89537 33.3785 6.03432 33.2156 6.14086L30.3733 8.00786C30.2543 8.24723 30.1382 8.78146 30.0249 9.61052C29.9037 10.4408 29.7792 11.3864 29.6514 12.4473C29.784 12.411 29.9987 12.3254 30.2955 12.1905C30.5854 12.0649 30.897 11.9483 31.2302 11.8407C31.5555 11.7344 31.8449 11.6868 32.0982 11.6979C32.3435 11.7102 32.4845 11.8407 32.5211 12.0895C32.5649 12.3864 32.5258 12.5891 32.4038 12.6977C32.2817 12.8063 32.1528 12.8954 32.017 12.9651C31.7679 13.0927 31.4298 13.2502 31.0028 13.4375C30.569 13.634 30.0479 13.8436 29.4394 14.0664C29.2796 15.2961 29.1321 16.3888 28.9969 17.3442C28.8537 18.3008 28.6411 19.1448 28.3593 19.8762C28.0705 20.6168 27.6297 21.2614 27.0368 21.8099C27.4954 21.782 27.9317 21.7409 28.3459 21.6868C28.7613 21.6407 29.1516 21.5902 29.5169 21.5353C31.5898 21.2235 33.0337 20.7479 33.8488 20.1086C34.665 19.4773 35.014 18.7604 34.8957 17.9579C34.8307 17.5166 34.5695 17.1211 34.1121 16.7716C33.6479 16.4313 33.0179 16.1775 32.2221 16.0101C32.1819 15.7373 32.1727 15.4269 32.1945 15.0792C32.2175 14.7394 32.2668 14.5229 32.3423 14.4294C33.6634 14.6901 34.6842 15.0902 35.4051 15.6298C36.1179 16.1705 36.5223 16.7659 36.6181 17.4159C36.7576 18.3628 36.5702 19.2399 36.0559 20.0473C35.5349 20.8639 34.7242 21.56 33.6238 22.1356C32.5166 22.7205 31.149 23.1353 29.5209 23.3802L26.0542 23.9017C25.1965 24.0307 24.3302 24.1569 23.4554 24.2802C22.5806 24.4037 21.78 24.5077 21.0538 24.5923C20.3287 24.6849 19.7442 24.7401 19.3003 24.7576C18.8496 24.7844 18.619 24.7617 18.6084 24.6895C18.5942 24.5931 18.6513 24.4574 18.7797 24.2823L19.7688 22.7309C19.9326 22.575 20.0999 22.4432 20.2707 22.3355C20.4348 22.237 20.6201 22.1722 20.8266 22.1411C21.5334 22.0348 22.3077 22.0004 23.1493 22.0378C23.9922 22.0833 24.8051 22.0635 25.5882 21.9786C25.7164 20.975 25.841 19.8653 25.9623 18.6495C26.0768 17.443 26.232 16.2098 26.4279 14.95C25.9652 15.0606 25.4968 15.1597 25.0227 15.2474C24.5418 15.3444 24.0472 15.4311 23.5389 15.5076C23.1179 15.5709 21.3264 15.9808 21.8403 15.7212C21.4078 15.7616 21.3799 15.7585 20.9193 15.8277C20.6254 15.872 20.459 15.7616 20.42 15.4968C20.3869 15.2722 20.4694 15.0055 20.6674 14.6968C20.8655 14.3881 21.5146 14.2125 21.8403 14.1635C22.7774 14.0225 23.2784 13.8776 24.1179 13.7349C24.9585 13.6002 25.7871 13.4387 26.6037 13.2502C26.7343 12.0987 26.9499 11.082 27.2502 10.2002C27.5505 9.3183 27.8406 8.53239 28.1205 7.84228L26.6076 8.06986C26.4825 8.04764 26.2142 7.98959 25.8026 7.89566C25.3842 7.81092 24.9192 7.71273 24.4075 7.60105C23.8891 7.49855 23.41 7.4148 22.9702 7.34969C22.5223 7.28582 22.2032 7.26822 22.0125 7.29688C21.7504 7.33629 21.4322 7.49081 21.058 7.76035C20.965 7.79077 20.7824 7.92894 20.5102 8.17495C20.2391 8.42901 19.918 8.75618 19.5467 9.15651C19.1687 9.56607 18.7834 10.0095 18.391 10.4869C17.9907 10.9654 17.6194 11.4478 17.277 11.934L17.0819 10.61C17.9434 9.56992 18.7159 8.64169 19.3993 7.8253C20.0827 7.00891 20.776 6.34274 21.4794 5.82683C22.1747 5.31212 22.987 4.9849 23.9162 4.84512C23.9798 4.83557 24.0639 4.85572 24.1687 4.90556C24.2643 4.94861 24.4822 5.02244 24.8224 5.12712C25.1534 5.22499 25.6912 5.34914 26.4359 5.49961C27.1817 5.65814 28.2309 5.8366 29.5834 6.0351C30.1713 5.39712 30.8096 4.82534 31.4982 4.31987C32.1856 3.80635 32.8073 3.50779 33.3632 3.42415Z" fill="#1E1E1E"/>
</g>
<defs>
<clipPath id="clip0_161_50">
<rect width="37" height="27" fill="white" transform="translate(0 3)"/>
</clipPath>
</defs>
</svg>
