<svg width="79" height="79" viewBox="0 0 79 79" fill="none" xmlns="http://www.w3.org/2000/svg">
<g clip-path="url(#clip0_160_45)">
<path d="M79 0H0V79H79V0Z" fill="#1E1E1E"/>
</g>
<g clip-path="url(#clip1_160_45)">
<path d="M11.8437 64.1406C10.8437 64.1406 9.78125 63.9688 8.65625 63.625C7.53125 63.2969 6.57031 62.7422 5.77344 61.9609C4.99219 61.1797 4.60156 60.1172 4.60156 58.7734C4.60156 58.2422 4.71875 57.7969 4.95312 57.4375C5.1875 57.0781 5.59375 56.8984 6.17188 56.8984L15.1953 57.5312C15.3828 57.3125 15.6406 56.8125 15.9688 56.0312C16.3125 55.2656 16.6875 54.3594 17.0938 53.3125C14.6562 53.2031 12.3984 52.5547 10.3203 51.3672C8.25781 50.1797 6.59375 48.4609 5.32812 46.2109C4.0625 43.9453 3.42969 41.1484 3.42969 37.8203C3.42969 35.1328 3.91406 32.5156 4.88281 29.9688C5.85156 27.4219 7.25 25.1328 9.07812 23.1016C10.9219 21.0547 13.1562 19.4297 15.7812 18.2266C18.4062 17.0234 21.3672 16.4219 24.6641 16.4219C25.1641 16.4219 25.6875 16.4531 26.2344 16.5156C26.7812 16.5625 27.3281 16.6328 27.875 16.7266L27.7812 19.1172C27.375 19.0391 26.9766 18.9922 26.5859 18.9766C26.1953 18.9453 25.8203 18.9297 25.4609 18.9297C22.8984 18.9297 20.5859 19.4062 18.5234 20.3594C16.4766 21.2969 14.7266 22.5703 13.2734 24.1797C11.8203 25.7891 10.7031 27.6016 9.92188 29.6172C9.15625 31.6328 8.77344 33.7109 8.77344 35.8516C8.77344 38.2266 9.24219 40.2812 10.1797 42.0156C11.1328 43.75 12.3828 45.1406 13.9297 46.1875C15.4922 47.2188 17.1875 47.8594 19.0156 48.1094C19.3281 47.25 19.6016 46.4844 19.8359 45.8125C20.0859 45.125 20.2656 44.6406 20.375 44.3594C20.5781 43.8281 21.1328 43.5234 22.0391 43.4453C22.9453 43.3516 23.8984 43.3047 24.8984 43.3047L23.1172 48.0859C25.6328 47.7109 27.7812 46.8047 29.5625 45.3672C31.3594 43.9297 32.7656 42.2656 33.7812 40.375H33.4766C31.3516 40.375 29.3516 40.0078 27.4766 39.2734C25.6172 38.5234 24.1016 37.4062 22.9297 35.9219C21.7734 34.4219 21.1953 32.5469 21.1953 30.2969C21.1953 29.0156 21.4844 27.8203 22.0625 26.7109C22.6562 25.5859 23.5703 24.6797 24.8047 23.9922C26.0547 23.3047 27.6562 22.9609 29.6094 22.9609C31 22.9609 32.3516 23.3594 33.6641 24.1562C34.9922 24.9375 36.0859 26.1484 36.9453 27.7891C37.8047 29.4141 38.2344 31.4844 38.2344 34C38.2344 35.0781 38.1406 36.1016 37.9531 37.0703C40 36.5 42.5 35 45.5 34.5L49.5 35.5C56.4844 35.2578 42.2656 38.4375 41 39C39.75 39.5469 38.5078 39.7812 37.1797 40.0469C36.3516 42.3594 35.1094 44.4141 33.4531 46.2109C31.8125 47.9922 29.9375 49.4688 27.8281 50.6406C25.7188 51.7969 23.5391 52.5859 21.2891 53.0078L19.6719 57.3672C20.2969 57.2734 21.0703 57.1484 21.9922 56.9922C22.9297 56.8359 23.8359 56.6406 24.7109 56.4062C25.5859 56.1719 26.2578 55.8906 26.7266 55.5625L26.9609 58.375C26.6016 58.5625 26.0703 58.75 25.3672 58.9375C24.6641 59.1406 23.8984 59.3281 23.0703 59.5C22.2578 59.6719 21.4922 59.8125 20.7734 59.9219C20.0547 60.0469 19.4922 60.125 19.0859 60.1562C18.6484 61.1875 17.8203 62.1094 16.6016 62.9219C15.3828 63.7344 13.7969 64.1406 11.8437 64.1406ZM35.0234 37.3047C35.4453 35.9609 35.6562 34.6172 35.6562 33.2734C35.6562 31.8672 35.4141 30.5859 34.9297 29.4297C34.4453 28.2578 33.7031 27.3281 32.7031 26.6406C31.7188 25.9531 30.4766 25.6094 28.9766 25.6094C27.6484 25.6094 26.6875 25.8906 26.0938 26.4531C25.5156 27 25.2266 27.7109 25.2266 28.5859C25.2266 30.2422 25.6484 31.7266 26.4922 33.0391C27.3359 34.3359 28.4922 35.3672 29.9609 36.1328C31.4453 36.8828 33.1328 37.2734 35.0234 37.3047ZM12.1719 61.9375C12.875 61.9375 13.3984 61.6953 13.7422 61.2109C14.1016 60.7422 14.3828 60.2812 14.5859 59.8281H11.8906C11.2969 59.8281 10.7578 59.7891 10.2734 59.7109C9.80469 59.6484 9.39844 59.6094 9.05469 59.5938C8.64844 59.5938 8.36719 59.6094 8.21094 59.6406C8.07031 59.6875 8 59.8438 8 60.1094C8 60.4531 8.39844 60.8438 9.19531 61.2812C9.99219 61.7188 10.9844 61.9375 12.1719 61.9375Z" fill="white"/>
<path d="M67.9231 13.8168C68.0313 13.8007 68.302 13.8157 68.7354 13.8617C69.151 13.8947 69.5696 14.0535 69.9911 14.3383C70.4104 14.6076 70.6706 15.0823 70.7718 15.7623C70.8455 16.2569 70.6835 16.7075 70.2859 17.1142C69.8752 17.5387 69.41 17.916 68.8905 18.2461C68.3709 18.5762 67.9527 18.8438 67.6357 19.049L62.1048 22.6447C61.8733 23.1057 61.6473 24.1346 61.4269 25.7313C61.191 27.3304 60.9487 29.1515 60.7 31.1948C60.9581 31.1248 61.3759 30.9599 61.9534 30.7002C62.5176 30.4582 63.124 30.2336 63.7724 30.0265C64.4054 29.8217 64.9684 29.73 65.4613 29.7514C65.9387 29.7751 66.2131 30.0265 66.2844 30.5056C66.3695 31.0774 66.2934 31.4679 66.056 31.677C65.8185 31.8861 65.5676 32.0578 65.3033 32.1919C64.8186 32.4378 64.1607 32.7411 63.3298 33.1018C62.4857 33.4802 61.4716 33.8839 60.2875 34.313C59.9766 36.6814 59.6895 38.7857 59.4264 40.6257C59.1477 42.4681 58.7341 44.0936 58.1856 45.5022C57.6238 46.9286 56.766 48.17 55.6121 49.2264C56.5045 49.1726 57.3537 49.0935 58.1597 48.9894C58.9679 48.9006 59.7275 48.8033 60.4384 48.6975C64.4721 48.097 67.2819 47.1811 68.8679 45.9498C70.4562 44.7339 71.1353 43.3533 70.9052 41.8078C70.7787 40.9578 70.2704 40.1962 69.3803 39.5231C68.4771 38.8677 67.2511 38.3788 65.7024 38.0564C65.6242 37.531 65.6063 36.9333 65.6487 36.2635C65.6935 35.6092 65.7894 35.1921 65.9364 35.0122C68.5071 35.5142 70.4937 36.2848 71.8964 37.3239C73.2836 38.3654 74.0704 39.512 74.2568 40.7639C74.5283 42.5875 74.1637 44.2768 73.1629 45.8317C72.1491 47.4044 70.5715 48.7451 68.4301 49.8537C66.2756 50.9801 63.6143 51.7791 60.4461 52.2507L53.7001 53.255C52.031 53.5035 50.3453 53.7465 48.643 53.9841C46.9406 54.2218 45.3828 54.4221 43.9696 54.5851C42.5586 54.7635 41.4212 54.8697 40.5574 54.9035C39.6804 54.955 39.2316 54.9113 39.2109 54.7722C39.1833 54.5867 39.2944 54.3253 39.5443 53.988L41.4691 51.0001C41.7878 50.6999 42.1133 50.4461 42.4458 50.2386C42.7651 50.0489 43.1256 49.9242 43.5275 49.8643C44.9029 49.6596 46.4096 49.5933 48.0474 49.6654C49.6876 49.753 51.2695 49.7149 52.7933 49.5513C53.0427 47.6185 53.2853 45.4813 53.5212 43.1398C53.744 40.8161 54.046 38.441 54.4273 36.0147C53.527 36.2277 52.6155 36.4187 51.6928 36.5876C50.757 36.7743 49.7945 36.9413 48.8054 37.0886C47.9863 37.2105 44.5 38 45.5 37.5C44.6585 37.5779 44.6042 37.5718 43.7078 37.7052C43.136 37.7904 42.8121 37.5779 42.7362 37.0679C42.6718 36.6352 42.8323 36.1216 43.2177 35.5271C43.6031 34.9326 44.8663 34.5943 45.5 34.5C47.3236 34.2285 48.2986 33.9493 49.9322 33.6745C51.568 33.4152 53.1804 33.1041 54.7693 32.7411C55.0236 30.5233 55.443 28.5652 56.0275 26.8669C56.6119 25.1685 57.1764 23.6549 57.721 22.3258L54.7769 22.7641C54.5336 22.7213 54.0114 22.6095 53.2104 22.4286C52.3963 22.2654 51.4914 22.0763 50.4957 21.8612C49.4869 21.6638 48.5546 21.5025 47.6987 21.3771C46.8273 21.2541 46.2062 21.2202 45.8352 21.2754C45.3252 21.3513 44.706 21.6489 43.9777 22.168C43.7968 22.2266 43.4415 22.4927 42.9118 22.9665C42.3843 23.4558 41.7593 24.0859 41.0369 24.8569C40.3012 25.6457 39.5516 26.4998 38.788 27.4191C38.009 28.3407 37.2864 29.2698 36.6201 30.2062L36.2405 27.6562C37.917 25.6531 39.4201 23.8654 40.75 22.2931C42.0798 20.7208 43.4291 19.4378 44.7977 18.4442C46.1508 17.4529 47.7315 16.8227 49.5397 16.5535C49.6634 16.5351 49.8271 16.5739 50.031 16.6699C50.2171 16.7528 50.6411 16.895 51.303 17.0966C51.9471 17.2851 52.9937 17.5242 54.4428 17.814C55.8942 18.1193 57.9358 18.463 60.5677 18.8453C61.7117 17.6166 62.9538 16.5154 64.2938 15.5419C65.6315 14.5529 66.8412 13.9779 67.9231 13.8168Z" fill="white"/>
</g>
<defs>
<clipPath id="clip0_160_45">
<rect width="79" height="79" fill="white"/>
</clipPath>
<clipPath id="clip1_160_45">
<rect width="72" height="52" fill="white" transform="translate(3 13)"/>
</clipPath>
</defs>
</svg>
